<svg xmlns="http://www.w3.org/2000/svg" viewBox="0 0 297.5 297.5" width="512" height="512"><path d="M262.502 99.5c0 8.284-6.716 15-15 15h-49c-2.949 0-5.834-.869-8.291-2.5l-31.525-20.911-24.309 32.411h30.938c2.329 0 4.625.542 6.708 1.584l57.164 28.582c7.41 3.704 10.413 12.715 6.708 20.124-3.705 7.408-12.715 10.416-20.124 6.708L161.774 153.5h-31.526l17.146 17.32a15 15 0 01-6.996 25.099L83.666 210.21c-1.229.31-2.462.458-3.675.458-6.711 0-12.821-4.536-14.535-11.34-2.023-8.033 2.849-16.186 10.882-18.21l31.245-7.871-23.95-24.194a14.968 14.968 0 01-2.937-4.239c-5.04-7.699-5.034-18.028.806-25.814l35.514-47.351-17.514-5.838L54.745 80.73c-7.86 2.617-16.354-1.627-18.974-9.487-2.619-7.859 1.628-16.354 9.487-18.974l49.5-16.5a15.016 15.016 0 019.486 0l49.5 16.5c7.288 2.756 49.279 32.23 49.279 32.23h44.478c8.285.001 15.001 6.717 15.001 15.001zm-82.25-50c13.669 0 24.75-11.081 24.75-24.75S193.921 0 180.252 0s-24.75 11.081-24.75 24.75 11.081 24.75 24.75 24.75zm-1.046 132.531c-3.643 1.091-6.037 4.587-6.037 8.39v80.788c0 5.132-3.828 9.292-8.96 9.292h-30.955c-3.802 0-7.298 2.395-8.389 6.037-1.647 5.497 2.522 10.963 7.886 10.963h41.25-.166c9.113 0 16.334-7.387 16.334-16.5v-91.083c0-5.366-5.466-9.534-10.963-7.887z" fill="#02203c"/></svg>